 http://img196.imageshack.us/img196/8264/jonahhex2010.jpg

Country.......: USA
Genre.........: Thriller, Western, Fantasy, Drama, Action
Date release..: 17.06.2010 [World]
Director......: Jimmy Hayward
Writers.......: Mark Neveldine, Brian Taylor
Duration......: 78 min.
More..........: http://www.imdb.com/title/tt1075747
Trailer.......: http://www.imdb.com/video/imdb/vi623773465
Trailer.......:

Pilot :
The U.S. military makes a scarred bounty hunter with warrants on his own head an offer he cannot refuse: in exchange for his freedom, he must stop a terrorist who is ready to unleash Hell on Earth. 

Cats :
Josh Brolin   	 ...  	Jonah Hex
John Malkovich 	... 	Quentin Turnbull
Megan Fox 	... 	Lilah
Michael Fassbender 	... 	Burke
Will Arnett 	... 	Lieutenant Grass
John Gallagher Jr. 	... 	Lieutenant Evan
Tom Wopat 	... 	Colonel Slocum
Michael Shannon 	... 	Doc Cross Williams
Wes Bentley 	... 	Adleman Lusk
Julia Jones 	... 	Cassie
Luke James Fleischmann 	... 	Travis
Rio Hackford 	... 	Grayden Nash
David Jensen 	... 	Turnbulls Henchman
Billy Blair 	... 	Turnbulls Gang Billy
Sean Boyd 	... 	Turnbulls Gang Preacher

Data Technical :
!!! SAMPLE !!!
Audio.....: Lector Polish
Subtitles.: None
Format                           : AVI
Format/Info                      : Audio Video Interleave
File size                        : 676 MiB
Duration                         : 1h 18mn
Overall bit rate                 : 1 210 Kbps
Writing application              : VirtualDubMod 1.5.10.2 (build 2540/release)
Writing library                  : VirtualDubMod build 2540/release
Video
ID                               : 0
Format                           : MPEG-4 Visual
Format profile                   : Advanced Simple@L5
Format settings, BVOP            : Yes
Format settings, QPel            : No
Format settings, GMC             : No warppoints
Format settings, Matrix          : Default (H.263)
Muxing mode                      : Packed bitstream
Codec ID                         : XVID
Codec ID/Hint                    : XviD
Duration                         : 1h 18mn
Bit rate                         : 1 072 Kbps
Width                            : 640 pixels
Height                           : 272 pixels
Display aspect ratio             : 2.35:1
Frame rate                       : 25.000 fps
Original frame rate              : 23.976 fps
Color space                      : YUV
Chroma subsampling               : 4:2:0
Bit depth                        : 8 bits
Scan type                        : Progressive
Bits/(Pixel*Frame)               : 0.246
Stream size                      : 599 MiB (89%)
Writing library                  : XviD 1.2.1 (UTC 2008-12-04)
Audio
ID                               : 1
Format                           : MPEG Audio
Format version                   : Version 1
Format profile                   : Layer 3
Mode                             : Joint stereo
Codec ID                         : 55
Codec ID/Hint                    : MP3
Duration                         : 1h 18mn
Bit rate mode                    : Constant
Bit rate                         : 128 Kbps
Channel(s)                       : 2 channels
Sampling rate                    : 44.1 KHz
Video delay                      : 22ms
Stream size                      : 71.5 MiB (11%)
Alignment                        : Split accross interleaves
Interleave, duration             : 40 ms (1.00 video frame)
Interleave, preload duration     : 500 ms
Writing library                  : LAME3.98

Screen : 
http://img853.imageshack.us/img853/1284/jonahhex2010s1.jpg 
http://img405.imageshack.us/img405/2883/jonahhex2010s2.jpg 
http://img51.imageshack.us/img51/3707/jonahhex2010s3.jpg 
http://img809.imageshack.us/img809/9236/jonahhex2010s4.jpg 
http://img220.imageshack.us/img220/7510/jonahhex2010s5.jpg